<?xml version="1.0" encoding="utf-8"?>
<!-- Generator: Adobe Illustrator 25.4.1, SVG Export Plug-In . SVG Version: 6.00 Build 0)  -->
<svg version="1.0" id="Слой_1" xmlns="http://www.w3.org/2000/svg" xmlns:xlink="http://www.w3.org/1999/xlink" x="0px" y="0px"
	 viewBox="0 0 1000 1000" enable-background="new 0 0 1000 1000" xml:space="preserve">
<g>
	<path fill="000000" d="M756.02,415.22l-6.33-17.39l-19.76,7.19c-19.14-39.66-48.29-73.56-84.09-98.61l16.08-22.96l-15.17-10.61
		l-106.2,151.68c-9.48-5.21-20.06-8.64-31.29-9.87v-83.86h-18.52v83.86c-11.23,1.23-21.81,4.66-31.28,9.87l-79.09-112.95
		c32.63-19.24,70.2-30.86,110.37-32.43v23.88h18.52v-23.98c30.3,1.18,59.15,8.05,85.51,19.62l10.8-15.43
		c-29.54-13.48-62.07-21.46-96.31-22.7v-31.05h-18.52v31.13c-44.11,1.6-85.33,14.44-121.01,35.75l-16.48-23.54l-15.17,10.61
		l106.26,151.76c-8.24,7.25-15.03,16.05-19.96,25.98l-78.86-28.7l-6.33,17.39l78.85,28.7c-1.57,6.42-2.49,13.09-2.49,19.99
		c0,1.96,0.19,3.91,0.32,5.86c-46.25-4.63-83.93,2.28-112.42,20.77c-17.52,11.36-28.5,25.22-35.34,37.3
		c-3.09-15.23-4.72-30.98-4.72-47.1c0-30.73,5.9-60.11,16.61-87.06l33.08,12.04l6.33-17.39l-31.81-11.58
		c13.62-27.68,32.44-52.38,55.26-72.69l-10.67-15.24c-25.82,22.6-47.01,50.34-62.08,81.57l-19.81-7.21l-6.33,17.39l18.66,6.79
		c-11.44,28.93-17.76,60.43-17.76,93.38c0,140.68,114.45,255.13,255.12,255.13c140.68,0,255.13-114.45,255.13-255.13
		c0-32.96-6.34-64.44-17.78-93.38L756.02,415.22z M434.07,498.56c0-36.35,29.57-65.94,65.93-65.94s65.94,29.58,65.94,65.94
		c0,12-3.37,23.47-9.45,33.64c-1.66-0.21-3.33-0.44-5.01-0.67l0.01-0.06c-0.73-0.09-1.42-0.14-2.15-0.23
		c-22.05-3.15-44.84-7.79-67.94-14.14c-16.39-4.51-31.94-7.86-46.76-10.21C434.29,504.13,434.07,501.36,434.07,498.56z
		 M632.36,711.42c-5.77,3.91-11.75,7.54-17.87,10.95c-98.58-113.65-268.22-74.62-303.55-64.89c-9.89-13.13-18.42-27.35-25.44-42.39
		c27.36,10.28,80.96,18.06,183.36,1.44c25.12-3.03,100.55-8.59,139.57,27.03C625.87,659.48,633.84,682.34,632.36,711.42z
		 M597.4,730.94c-12.33,5.59-25.19,10.22-38.54,13.65c-36.47-3.04-58.68-19.22-84.28-38c-22.56-16.53-46.98-34.38-83.7-43.41
		C453.55,658.74,539.22,667.21,597.4,730.94z M467.5,597.99c-5.8,0.7-9.5,1.32-10.25,1.46l0.03,0.15
		c-42.99,6.56-76.26,8.51-101.86,7.88c3.37-8.1,10.2-19.89,24.23-30.94c23.63-18.62,72.26-38.35,169.64-26.68l0-0.04
		c71.64,9.82,143.8,5.06,187.07-24.49c-1.5,36.06-11.1,70.04-27.04,100.21c-4.18-7.44-10.68-15.83-20.9-23.45
		c-34.34-25.58-91.84-30.12-170.92-13.48C499.55,592.38,482.96,595.45,467.5,597.99z M313.53,540.73
		c32.73-21.24,80.6-24.74,142.23-10.84c-36.48,4.24-65.8,14.95-87.59,32.12c-20.49,16.14-28.83,34.03-32.15,44.44
		c-37.59-3.27-53.72-12.54-59.37-16.95C279.28,580.11,287.99,557.3,313.53,540.73z M326.51,676.06
		c70.53-3.16,104.41,21.49,137.12,45.46c14.97,10.97,30.34,22.06,48.8,30.15c-4.12,0.21-8.27,0.33-12.44,0.33
		C431.51,752,369.76,722.72,326.51,676.06z M650.84,697.53c-1.45-27.97-11.39-50.74-29.97-67.68
		c-17.37-15.84-40.14-24.67-63.15-29.38c66.7-8.81,101.39,3.16,119.05,16.05c14.88,10.85,19.47,23.28,20.84,28.78
		C684.66,664.94,668.9,682.56,650.84,697.53z M736.17,501.9c-29.11,27.33-88.8,38.58-159.8,32.45c5.23-11.13,8.08-23.25,8.08-35.79
		c0-6.9-0.92-13.57-2.49-19.98l78.86-28.7l-6.33-17.39l-78.87,28.71c-4.93-9.92-11.72-18.73-19.96-25.97l79.58-113.65
		c32.71,22.89,59.41,53.76,77.17,89.84l-31.82,11.58l6.33,17.39l33.03-12.02C729.09,451.33,734.7,476.06,736.17,501.9z"/>
</g>
</svg>
